<?xml version="1.0" encoding="UTF-8" standalone="no"?>
<!-- Created with Inkscape (http://www.inkscape.org/) -->

<svg
   xmlns:dc="http://purl.org/dc/elements/1.1/"
   xmlns:cc="http://creativecommons.org/ns#"
   xmlns:rdf="http://www.w3.org/1999/02/22-rdf-syntax-ns#"
   xmlns:svg="http://www.w3.org/2000/svg"
   xmlns="http://www.w3.org/2000/svg"
   xmlns:sodipodi="http://sodipodi.sourceforge.net/DTD/sodipodi-0.dtd"
   xmlns:inkscape="http://www.inkscape.org/namespaces/inkscape"
   width="210mm"
   height="297mm"
   viewBox="0 0 744.09448819 1052.3622047"
   id="svg2"
   version="1.1"
   inkscape:version="0.91 r13725"
   sodipodi:docname="GIT-Incêndio.svg">
  <defs
     id="defs4">
    <path
       d="M98.1 244.8c1.6 7.5 5.5 11.9 9.4 14.5h41.1c5-3.4 10.1-9.8 10.1-21.8v-31s.6-7.7 7.7-10.2c0 0 4.1-2.9-.3-4.5 0 0-19.5-1.6-19.5 14.4v23.6s.8 8.7-3.8 12.3v-29.2s.3-9.3 5.1-12.8c0 0 3.2-5.7-3.8-4.2 0 0-13.4 1.9-14 17.6l-.3 30h-3.2l-.3-30c-.6-15.6-14-17.6-14-17.6-7-1.6-3.8 4.2-3.8 4.2 4.8 3.5 5.1 12.8 5.1 12.8v29.5c-4.6-3.3-3.8-12.6-3.8-12.6v-23.6c0-16-19.5-14.4-19.5-14.4-4.5 1.6-.3 4.5-.3 4.5 7 2.6 7.7 10.2 7.7 10.2v21.7l.4 16.6z"
       id="a" />
  </defs>
  <sodipodi:namedview
     id="base"
     pagecolor="#ffffff"
     bordercolor="#666666"
     borderopacity="1.0"
     inkscape:pageopacity="0.0"
     inkscape:pageshadow="2"
     inkscape:zoom="0.35"
     inkscape:cx="-586.54373"
     inkscape:cy="645.02611"
     inkscape:document-units="px"
     inkscape:current-layer="layer2"
     showgrid="false"
     inkscape:window-width="1295"
     inkscape:window-height="744"
     inkscape:window-x="65"
     inkscape:window-y="24"
     inkscape:window-maximized="1" />
  <metadata
     id="metadata7">
    <rdf:RDF>
      <cc:Work
         rdf:about="">
        <dc:format>image/svg+xml</dc:format>
        <dc:type
           rdf:resource="http://purl.org/dc/dcmitype/StillImage" />
        <dc:title></dc:title>
      </cc:Work>
    </rdf:RDF>
  </metadata>
  <g
     inkscape:label="Camada 1"
     inkscape:groupmode="layer"
     id="layer1">
    <text
       xml:space="preserve"
       style="font-style:normal;font-variant:normal;font-weight:normal;font-stretch:normal;font-size:53.75px;line-height:125%;font-family:Verdana;-inkscape-font-specification:Verdana;letter-spacing:0px;word-spacing:0px;fill:#d40000;fill-opacity:1;stroke:none;stroke-width:1px;stroke-linecap:butt;stroke-linejoin:miter;stroke-opacity:1;"
       x="37.142853"
       y="409.5051"
       id="text3336"
       sodipodi:linespacing="125%"><tspan
         sodipodi:role="line"
         id="tspan3338"
         x="37.142853"
         y="409.5051">1. git commit -m &quot;fogo!!&quot;</tspan><tspan
         sodipodi:role="line"
         x="37.142853"
         y="476.6926"
         id="tspan3399">2. git push</tspan><tspan
         sodipodi:role="line"
         x="37.142853"
         y="543.88013"
         id="tspan3401">3. Saia do prédio!</tspan></text>
    <text
       xml:space="preserve"
       style="font-style:normal;font-weight:normal;font-size:40px;line-height:125%;font-family:sans-serif;letter-spacing:0px;word-spacing:0px;fill:#000000;fill-opacity:1;stroke:none;stroke-width:1px;stroke-linecap:butt;stroke-linejoin:miter;stroke-opacity:1"
       x="305.71426"
       y="163.79076"
       id="text3344"
       sodipodi:linespacing="125%"><tspan
         sodipodi:role="line"
         id="tspan3346"
         x="305.71426"
         y="163.79076"
         style="font-style:normal;font-variant:normal;font-weight:normal;font-stretch:normal;font-size:70px;font-family:Verdana;-inkscape-font-specification:Verdana">Em caso de</tspan><tspan
         sodipodi:role="line"
         x="305.71426"
         y="251.29076"
         id="tspan3381"
         style="font-style:normal;font-variant:normal;font-weight:normal;font-stretch:normal;font-size:70px;font-family:Verdana;-inkscape-font-specification:Verdana">incêndio</tspan></text>
    <g
       id="g3371"
       transform="matrix(0.25122653,0,0,0.28571428,22.246729,19.505065)">
      <path
         id="path3373"
         d="M 314.1,990 C 248.8,854.1 283.6,776.2 333.8,702.9 388.8,622.6 402.9,543 402.9,543 c 0,0 43.2,56.2 25.9,144 76.3,-85 90.8,-220.4 79.2,-272.2 172.6,120.6 246.4,381.7 147,575.2 528.6,-299.1 131.5,-746.6 62.4,-797.1 23,50.4 27.4,135.8 -19.1,177.2 C 619.4,71.3 424.5,10 424.5,10 447.5,164.1 341,332.7 238.2,458.6 234.6,397.1 230.8,354.7 198.4,295.9 191.1,407.5 105.8,498.5 82.7,610.4 51.4,761.9 106.2,872.8 314.1,990 Z"
         inkscape:connector-curvature="0" />
    </g>
    <flowRoot
       xml:space="preserve"
       id="flowRoot3383"
       style="fill:black;stroke:none;stroke-opacity:1;stroke-width:1px;stroke-linejoin:miter;stroke-linecap:butt;fill-opacity:1;font-family:sans-serif;font-style:normal;font-weight:normal;font-size:40px;line-height:125%;letter-spacing:0px;word-spacing:0px"><flowRegion
         id="flowRegion3385"><rect
           id="rect3387"
           width="351.42856"
           height="68.571426"
           x="154.28572"
           y="89.505058" /></flowRegion><flowPara
         id="flowPara3389"></flowPara></flowRoot>    <flowRoot
       xml:space="preserve"
       id="flowRoot3391"
       style="fill:black;stroke:none;stroke-opacity:1;stroke-width:1px;stroke-linejoin:miter;stroke-linecap:butt;fill-opacity:1;font-family:sans-serif;font-style:normal;font-weight:normal;font-size:40px;line-height:125%;letter-spacing:0px;word-spacing:0px"><flowRegion
         id="flowRegion3393"><rect
           id="rect3395"
           width="417.14285"
           height="125.71429"
           x="131.42857"
           y="506.64792" /></flowRegion><flowPara
         id="flowPara3397"></flowPara></flowRoot>    <g
       id="g3455"
       transform="matrix(1.7600447,0,0,1.8285047,161.14285,619.57504)">
      <path
         id="path3424"
         d="m 200.9,199.8 c 0,13.9 -32.2,25.1 -71.9,25.1 -39.7,0 -71.9,-11.3 -71.9,-25.1 0,-13.9 32.2,-25.1 71.9,-25.1 39.7,0 71.9,11.2 71.9,25.1 z m 0,0"
         inkscape:connector-curvature="0"
         style="fill:#9edcf2" />
      <path
         id="path3432"
         d="m 200.9,199.8 c 0,13.9 -32.2,25.1 -71.9,25.1 -39.7,0 -71.9,-11.3 -71.9,-25.1 0,-13.9 32.2,-25.1 71.9,-25.1 39.7,0 71.9,11.2 71.9,25.1 z m 0,0"
         clip-path="url(#b)"
         inkscape:connector-curvature="0"
         style="fill:#7dbce7" />
      <path
         id="path3434"
         d="m 46.9,125.9 -2.1,7.2 c 0,0 -0.5,2.6 1.9,3.1 2.6,-0.1 2.4,-2.5 2.2,-3.2 l -2,-7.1 z m 0,0"
         inkscape:connector-curvature="0"
         style="fill:#9edcf2" />
      <path
         id="path3436"
         d="m 255.8,95.6 0.2,-0.9 c -21.1,-4.2 -42.7,-4.3 -55.8,-3.7 2.1,-7.7 2.8,-16.7 2.8,-26.6 0,-14.3 -5.4,-25.7 -14,-34.3 1.5,-4.9 3.5,-15.8 -2,-29.7 0,0 -9.8,-3.1 -32.1,11.8 -8.7,-2.2 -18,-3.3 -27.3,-3.3 -10.2,0 -20.5,1.3 -30.2,3.9 C 74.4,-2.9 64.3,0.3 64.3,0.3 57.7,16.8 61.8,29.1 63,32.1 55.2,40.5 50.5,51.2 50.5,64.3 c 0,9.9 1.1,18.8 3.9,26.5 C 41.2,90.3 20.4,90.5 0,94.6 l 0.2,0.9 c 20.4,-4.1 41.4,-4.2 54.5,-3.7 0.6,1.6 1.3,3.2 2,4.7 -13,0.4 -35.1,2.1 -56.3,8.1 l 0.3,0.9 c 21.4,-6 43.7,-7.6 56.6,-8 7.8,14.4 23,23.8 50.2,26.7 -3.9,2.6 -7.8,7 -9.4,14.5 -5.3,2.5 -21.9,8.7 -31.9,-8.5 0,0 -5.6,-10.2 -16.3,-11 0,0 -10.4,-0.2 -0.7,6.5 0,0 6.9,3.3 11.7,15.6 0,0 6.3,21 36.4,14.2 l 0,21.5 c 0,0 -0.6,7.7 -7.7,10.2 0,0 -4.2,2.9 0.3,4.5 0,0 19.5,1.6 19.5,-14.4 l 0,-23.6 c 0,0 -0.8,-9.4 3.8,-12.6 l 0,38.8 c 0,0 -0.3,9.3 -5.1,12.8 0,0 -3.2,5.7 3.8,4.2 0,0 13.4,-1.9 14,-17.6 l 0.3,-39.3 3.2,0 0.3,39.3 c 0.6,15.6 14,17.6 14,17.6 7,1.6 3.8,-4.2 3.8,-4.2 -4.8,-3.5 -5.1,-12.8 -5.1,-12.8 l 0,-38.5 c 4.6,3.6 3.8,12.3 3.8,12.3 l 0,23.6 c 0,16 19.5,14.4 19.5,14.4 4.5,-1.6 0.3,-4.5 0.3,-4.5 -7,-2.6 -7.7,-10.2 -7.7,-10.2 l 0,-31 c 0,-12.1 -5.1,-18.5 -10.1,-21.8 29,-2.9 42.9,-12.2 49.3,-26.8 12.7,0.3 35.6,1.9 57.4,8.1 l 0.3,-0.9 c -21.7,-6.1 -44.4,-7.7 -57.3,-8.1 0.6,-1.5 1.1,-3 1.6,-4.6 13.4,-0.5 35.1,-0.5 56.3,3.7 z m 0,0"
         inkscape:connector-curvature="0"
         style="fill:#010101" />
      <path
         id="path3438"
         d="m 174.6,63.7 c 6.2,5.7 9.9,12.5 9.9,19.8 0,34.4 -25.6,35.3 -57.2,35.3 -31.6,0 -57.2,-4.8 -57.2,-35.3 0,-7.3 3.6,-14.1 9.8,-19.7 10.3,-9.4 27.7,-4.4 47.4,-4.4 19.7,0 37,-5.1 47.3,4.3 z m 0,0"
         inkscape:connector-curvature="0"
         style="fill:#f5ccb3" />
      <path
         id="path3440"
         d="m 108.3,85.3 c 0,9.5 -5.3,17.1 -11.9,17.1 -6.6,0 -11.9,-7.7 -11.9,-17.1 0,-9.5 5.3,-17.1 11.9,-17.1 6.6,-0.1 11.9,7.6 11.9,17.1 z m 0,0"
         inkscape:connector-curvature="0"
         style="fill:#ffffff" />
      <path
         id="path3442"
         d="m 104.5,85.5 c 0,6.3 -3.6,11.4 -7.9,11.4 -4.4,0 -7.9,-5.1 -7.9,-11.4 0,-6.3 3.6,-11.4 7.9,-11.4 4.3,0 7.9,5.1 7.9,11.4 z m 0,0"
         inkscape:connector-curvature="0"
         style="fill:#af5c51" />
      <path
         id="path3444"
         d="m 172.2,85.3 c 0,9.5 -5.3,17.1 -11.9,17.1 -6.6,0 -11.9,-7.7 -11.9,-17.1 0,-9.5 5.3,-17.1 11.9,-17.1 6.5,-0.1 11.9,7.6 11.9,17.1 z m 0,0"
         inkscape:connector-curvature="0"
         style="fill:#ffffff" />
      <path
         id="path3446"
         d="m 168.3,85.5 c 0,6.3 -3.6,11.4 -7.9,11.4 -4.4,0 -7.9,-5.1 -7.9,-11.4 0,-6.3 3.6,-11.4 7.9,-11.4 4.4,0 7.9,5.1 7.9,11.4 z m 0,0 m -37.8,15 c 0,1.6 -1.3,3 -3,3 -1.6,0 -3,-1.3 -3,-3 0,-1.7 1.3,-3 3,-3 1.6,0 3,1.3 3,3 z m 0,0 m -9.9,7.5 c -0.2,-0.5 0.1,-1 0.6,-1.2 0.5,-0.2 1,0.1 1.2,0.6 0.8,2.2 2.8,3.6 5.1,3.6 2.3,0 4.3,-1.5 5.1,-3.6 0.2,-0.5 0.7,-0.8 1.2,-0.6 0.5,0.2 0.8,0.7 0.6,1.2 -1,2.9 -3.8,4.9 -6.9,4.9 -3.1,0 -5.9,-2 -6.9,-4.9 z m 0,0"
         inkscape:connector-curvature="0"
         style="fill:#af5c51" />
      <path
         id="path3448"
         d="m 54.5,121.6 c 0,0.8 -0.9,1.4 -2.1,1.4 -1.1,0 -2.1,-0.6 -2.1,-1.4 0,-0.8 0.9,-1.4 2.1,-1.4 1.2,0 2.1,0.6 2.1,1.4 z m 0,0 m 5.8,3.2 c 0,0.8 -0.9,1.4 -2.1,1.4 -1.1,0 -2.1,-0.6 -2.1,-1.4 0,-0.8 0.9,-1.4 2.1,-1.4 1.2,0 2.1,0.6 2.1,1.4 z m 0,0 m 3.5,4.2 c 0,0.8 -0.9,1.4 -2.1,1.4 -1.1,0 -2.1,-0.6 -2.1,-1.4 0,-0.8 0.9,-1.4 2.1,-1.4 1.2,-0.1 2.1,0.6 2.1,1.4 z m 0,0 m 3.2,4.8 c 0,0.8 -0.9,1.4 -2.1,1.4 -1.1,0 -2.1,-0.6 -2.1,-1.4 0,-0.8 0.9,-1.4 2.1,-1.4 1.2,-0.1 2.1,0.6 2.1,1.4 z m 0,0 m 3.5,4.4 c 0,0.8 -0.9,1.4 -2.1,1.4 -1.1,0 -2.1,-0.6 -2.1,-1.4 0,-0.8 0.9,-1.4 2.1,-1.4 1.2,0 2.1,0.6 2.1,1.4 z m 0,0 m 4.8,3.9 c 0,0.8 -0.9,1.4 -2.1,1.4 -1.1,0 -2.1,-0.6 -2.1,-1.4 0,-0.8 0.9,-1.4 2.1,-1.4 1.2,-0.1 2.1,0.6 2.1,1.4 z m 0,0 m 6.7,2.5 c 0,0.8 -0.9,1.4 -2.1,1.4 -1.1,0 -2.1,-0.6 -2.1,-1.4 0,-0.8 0.9,-1.4 2.1,-1.4 1.2,0 2.1,0.6 2.1,1.4 z m 0,0 m 6.7,0 c 0,0.8 -0.9,1.4 -2.1,1.4 -1.1,0 -2.1,-0.6 -2.1,-1.4 0,-0.8 0.9,-1.4 2.1,-1.4 1.2,0 2.1,0.6 2.1,1.4 z m 0,0 m 6.8,-1.1 c 0,0.8 -0.9,1.4 -2.1,1.4 -1.1,0 -2.1,-0.6 -2.1,-1.4 0,-0.8 0.9,-1.4 2.1,-1.4 1.1,0 2.1,0.6 2.1,1.4 z m 0,0"
         inkscape:connector-curvature="0"
         style="fill:#c4e5d9" />
    </g>
  </g>
  <g
     inkscape:groupmode="layer"
     id="layer2"
     inkscape:label="Camada 2" />
</svg>
